<?xml version="1.0" encoding="UTF-8" standalone="no"?>
<svg
   xmlns:dc="http://purl.org/dc/elements/1.1/"
   xmlns:cc="http://creativecommons.org/ns#"
   xmlns:rdf="http://www.w3.org/1999/02/22-rdf-syntax-ns#"
   xmlns:svg="http://www.w3.org/2000/svg"
   xmlns="http://www.w3.org/2000/svg"
   xmlns:xlink="http://www.w3.org/1999/xlink"
   xmlns:sodipodi="http://sodipodi.sourceforge.net/DTD/sodipodi-0.dtd"
   xmlns:inkscape="http://www.inkscape.org/namespaces/inkscape"
   version="1.0"
   width="64"
   height="64"
   viewBox="0 0 64 64"
   preserveAspectRatio="xMidYMid meet"
   id="svg2"
   inkscape:version="0.91 r13725"
   sodipodi:docname="logo.svg"
   inkscape:export-filename="C:\Users\marcus\Downloads\Sensibo_Hub2.png"
   inkscape:export-xdpi="180"
   inkscape:export-ydpi="180">
  <defs
     id="defs12">
    <pattern
       inkscape:collect="always"
       xlink:href="#pattern3441"
       id="pattern7379"
       patternTransform="matrix(0.8,0,0,0.8,29.706726,20.2589)" />
    <pattern
       inkscape:collect="always"
       xlink:href="#pattern3436"
       id="pattern3441"
       patternTransform="translate(55.165186,-10.224574)" />
    <pattern
       patternUnits="userSpaceOnUse"
       width="22.503314"
       height="12.331564"
       patternTransform="matrix(0.8,0,0,0.8,29.87192,20.375388)"
       id="pattern3420">
      <path
         d="m 13.003314,0.0328828 c -5.6874996,0.05 -8.3749996,0.1125 -8.6499996,0.2125 -3.71249997,1.3125 -5.4,5.3375 -3.67499997,8.75 0.81249997,1.6125002 2.41249997,2.8500002 4.07499997,3.1500002 0.85,0.1625 16.7624996,0.2625 16.5249996,0.1125 -0.1,-0.0625 -0.075,-0.1 0.0625,-0.1 0.1125,0 0.3375,-0.1625 0.5125,-0.3625 0.45,-0.55 0.65,-2.2250002 0.65,-5.6375002 0,-3.825 -0.2625,-5.5375 -0.9125,-5.9625 -0.3125,-0.2125 -0.85,-0.225 -8.5875,-0.1625 z m -6.4999996,1.7375 c 0.35,0.2 0.9,0.6 1.2375,0.9 l 0.6,0.5375 -0.075,0.725 c -0.075,0.575 -0.05,0.725 0.0875,0.725 0.1375,0 0.1625,0.1 0.0875,0.4625 -0.2,0.925 -0.25,1.1 -0.3375,1.1375 -0.45,0.15 -0.4625,0.2375 -0.125,1.3 0.55,1.75 0.525,1.8625 -0.6375,2.7000002 -1.4875,1.0875 -1.6125,1.1 -2.55,0.4375 -0.95,-0.6625 -1.475,-1.1750002 -1.475,-1.4500002 0,-0.1375 0.1125,-0.6375 0.2625,-1.1125 0.1375,-0.4875 0.225,-0.9 0.1875,-0.95 -0.0375,-0.0375 -0.075,0.0125 -0.075,0.1125 0,0.1125 -0.075,0.2875 -0.15,0.4 -0.1375,0.175 -0.1625,0.0125 -0.1625,-0.9375 0,-0.6375 -0.05,-1.2375 -0.1125,-1.3125 -0.0625,-0.1 -0.0375,-0.1875 0.1,-0.2375 0.1125,-0.0375 0.2,-0.1625 0.2,-0.2625 0,-0.1 -0.0375,-0.15 -0.1,-0.125 -0.05,0.0375 -0.0875,-0.3125 -0.0875,-0.775 0,-0.8125 0.025,-0.8625 0.425,-1.2125 0.5,-0.4375 1.9,-1.425 2,-1.425 0.0375,0 0.3625,0.1625 0.7,0.3625 z"
         id="path8"
         inkscape:connector-curvature="0"
         style="fill:#000000;stroke:none" />
    </pattern>
    <pattern
       patternUnits="userSpaceOnUse"
       width="22.503314"
       height="12.331564"
       patternTransform="matrix(0.8,0,0,0.8,49.517743,5.5470356)"
       id="pattern3436">
      <path
         d="m 13.003314,0.0328828 c -5.6874996,0.05 -8.3749996,0.1125 -8.6499996,0.2125 -3.71249997,1.3125 -5.4,5.3375002 -3.67499997,8.7500002 0.81249997,1.6125 2.41249997,2.85 4.07499997,3.15 0.85,0.1625 16.7624996,0.2625 16.5249996,0.1125 -0.1,-0.0625 -0.075,-0.1 0.0625,-0.1 0.1125,0 0.3375,-0.1625 0.5125,-0.3625 0.45,-0.55 0.65,-2.225 0.65,-5.6375 0,-3.8250002 -0.2625,-5.5375002 -0.9125,-5.9625002 -0.3125,-0.2125 -0.85,-0.225 -8.5875,-0.1625 z m -6.4999996,1.7375 c 0.35,0.2 0.9,0.6 1.2375,0.9 l 0.6,0.5375 -0.075,0.725 c -0.075,0.575 -0.05,0.725 0.0875,0.725 0.1375,0 0.1625,0.1 0.0875,0.4625 -0.2,0.9250002 -0.25,1.1000002 -0.3375,1.1375002 -0.45,0.15 -0.4625,0.2375 -0.125,1.3 0.55,1.75 0.525,1.8625 -0.6375,2.7 -1.4875,1.0875 -1.6125,1.1 -2.55,0.4375 -0.95,-0.6625 -1.475,-1.175 -1.475,-1.45 0,-0.1375 0.1125,-0.6375 0.2625,-1.1125 0.1375,-0.4875 0.225,-0.9 0.1875,-0.95 -0.0375,-0.0375 -0.075,0.0125 -0.075,0.1125 0,0.1125 -0.075,0.2875 -0.15,0.4 -0.1375,0.175 -0.1625,0.0125 -0.1625,-0.9375 0,-0.6375 -0.05,-1.2375002 -0.1125,-1.3125002 -0.0625,-0.1 -0.0375,-0.1875 0.1,-0.2375 0.1125,-0.0375 0.2,-0.1625 0.2,-0.2625 0,-0.1 -0.0375,-0.15 -0.1,-0.125 -0.05,0.0375 -0.0875,-0.3125 -0.0875,-0.775 0,-0.8125 0.025,-0.8625 0.425,-1.2125 0.5,-0.4375 1.9,-1.425 2,-1.425 0.0375,0 0.3625,0.1625 0.7,0.3625 z"
         id="path8-2"
         inkscape:connector-curvature="0"
         style="fill:#000000;stroke:none" />
    </pattern>
  </defs>
  <sodipodi:namedview
     pagecolor="#ffffff"
     bordercolor="#666666"
     borderopacity="1"
     objecttolerance="10"
     gridtolerance="10"
     guidetolerance="10"
     inkscape:pageopacity="0"
     inkscape:pageshadow="2"
     inkscape:window-width="1680"
     inkscape:window-height="987"
     id="namedview10"
     showgrid="false"
     units="px"
     inkscape:showpageshadow="false"
     inkscape:zoom="3.0451613"
     inkscape:cx="57.088876"
     inkscape:cy="-12.886136"
     inkscape:window-x="-8"
     inkscape:window-y="-8"
     inkscape:window-maximized="1"
     inkscape:current-layer="svg2" />
  <metadata
     id="metadata4">
Created by potrace 1.13, written by Peter Selinger 2001-2015
<rdf:RDF>
  <cc:Work
     rdf:about="">
    <dc:format>image/svg+xml</dc:format>
    <dc:type
       rdf:resource="http://purl.org/dc/dcmitype/StillImage" />
    <dc:title />
    <cc:license
       rdf:resource="http://creativecommons.org/publicdomain/zero/1.0/" />
  </cc:Work>
  <cc:License
     rdf:about="http://creativecommons.org/publicdomain/zero/1.0/">
    <cc:permits
       rdf:resource="http://creativecommons.org/ns#Reproduction" />
    <cc:permits
       rdf:resource="http://creativecommons.org/ns#Distribution" />
    <cc:permits
       rdf:resource="http://creativecommons.org/ns#DerivativeWorks" />
  </cc:License>
</rdf:RDF>
</metadata>
  <g
     id="g3349"
     transform="scale(1.25,1.25)">
    <rect
       y="-1.9073487e-007"
       x="0"
       height="51.200001"
       width="51.200001"
       id="rect3359"
       style="fill:#e3dedb;fill-opacity:1" />
    <circle
       r="22.4"
       cy="25.6"
       cx="25.6"
       id="path3340"
       style="fill:#ffffff;fill-opacity:1" />
    <g
       transform="translate(0.25542734,0.27864801)"
       id="g7452">
      <path
         id="path7377"
         d="m 29.70739,20.258872 0,9.865624 18.001562,0 0,-9.865624 -18.001562,0 z"
         style="fill:url(#pattern7379);stroke:none"
         inkscape:connector-curvature="0" />
      <g
         id="g7393"
         transform="translate(-18.886102,16.844323)">
        <rect
           y="4.3716097"
           x="51.03178"
           height="8.1440678"
           width="4.6631355"
           id="rect7383"
           style="fill:#000000;fill-opacity:1" />
        <path
           inkscape:connector-curvature="0"
           id="path3387"
           d="m 53.325237,4.8554283 1.910812,1.419461 -0.473154,1.601443 -1.055496,-1.856218 1.565047,4.7497327 -1.983605,1.656037 -1.892615,-1.52865 0.527748,-1.4922517 1.000902,1.8380187 -1.565046,-4.8953187 1.892613,-1.492254 z"
           style="fill:#00a0f0;fill-rule:evenodd;stroke:#000000;stroke-width:0.10190999px;stroke-linecap:butt;stroke-linejoin:miter;stroke-opacity:1" />
        <path
           transform="scale(0.8,0.8)"
           inkscape:connector-curvature="0"
           id="path7385"
           d="M 65.478433,14.49455 64.36093,13.595829 64.598039,12.9173 c 0.13041,-0.373191 0.256542,-0.732758 0.280292,-0.79904 0.02576,-0.07188 0.25969,0.275978 0.579707,0.862024 0.567903,1.039996 0.653276,1.166131 0.734388,1.08502 0.02792,-0.02792 -0.381076,-1.406303 -0.908879,-3.063075 -0.793781,-2.4916772 -0.940664,-3.0299447 -0.849845,-3.1143318 0.485053,-0.4506976 2.14944,-1.6896997 2.227802,-1.6584183 0.0882,0.035209 2.059144,1.4696673 2.213713,1.6111473 0.03446,0.03154 0.02722,0.1658445 -0.01609,0.2984549 -0.04331,0.1326105 -0.15766,0.5138931 -0.254116,0.8472947 L 68.429636,9.5925605 67.811245,8.507302 C 67.459231,7.889528 67.161999,7.4528986 67.121224,7.4936731 67.08045,7.5344477 67.457827,8.813416 67.9973,10.46278 c 0.521238,1.593612 0.936379,2.926983 0.922535,2.963046 -0.02261,0.05889 -2.270779,1.978109 -2.308327,1.970571 -0.0086,-0.0017 -0.518449,-0.40755 -1.133075,-0.901847 z"
           style="fill:#64dcfc;fill-opacity:1" />
        <path
           transform="scale(0.8,0.8)"
           inkscape:connector-curvature="0"
           id="path7387"
           d="m 65.651814,14.604478 c -0.474112,-0.38644 -0.95055,-0.772357 -1.05875,-0.857594 l -0.196727,-0.154977 0.236793,-0.69742 c 0.130235,-0.383581 0.267189,-0.687287 0.30434,-0.674904 0.03715,0.01238 0.300103,0.426372 0.584337,0.919973 0.524546,0.91093 0.76237,1.174993 0.656271,0.728675 C 66.147509,13.73964 65.830095,12.69236 65.472713,11.540943 64.367867,7.981336 64.3794,8.0280342 64.556503,7.8313123 c 0.196195,-0.217928 1.727612,-1.3727782 1.96206,-1.4795998 0.156147,-0.071146 0.320218,0.019316 1.222609,0.6740952 0.573242,0.4159474 1.061456,0.806296 1.08492,0.8674413 0.03595,0.093691 -0.325949,1.4835111 -0.407546,1.565108 C 68.403646,9.473256 68.194165,9.137829 67.953031,8.7129634 67.711896,8.2880977 67.425749,7.8362241 67.317149,7.7087997 l -0.197456,-0.2316806 0.05053,0.3122338 c 0.02779,0.1717286 0.417529,1.4647636 0.866087,2.8734111 0.448558,1.408647 0.815954,2.619951 0.816435,2.691785 9.3e-4,0.138867 -2.09961,1.966463 -2.250087,1.957712 -0.04885,-0.0028 -0.476727,-0.321344 -0.95084,-0.707783 z"
           style="fill:#24d0fc;fill-opacity:1" />
        <path
           transform="scale(0.8,0.8)"
           inkscape:connector-curvature="0"
           id="path7389"
           d="m 66.385498,15.162719 c -0.11574,-0.07295 -0.607004,-0.446657 -1.091698,-0.830462 -0.82515,-0.653397 -0.878333,-0.713183 -0.835281,-0.938979 0.07006,-0.367441 0.441158,-1.131343 0.524559,-1.079798 0.04057,0.02507 0.307653,0.43414 0.593517,0.909036 0.477627,0.793465 0.722167,1.077418 0.619873,0.719778 -0.0226,-0.07902 -0.398924,-1.301396 -0.836272,-2.716393 -0.521524,-1.687344 -0.79888,-2.7175479 -0.805937,-2.993553 l -0.01076,-0.42083 0.89471,-0.6817971 c 0.492091,-0.3749885 0.980632,-0.7033621 1.085647,-0.7297191 0.13129,-0.032952 0.326247,0.034692 0.624092,0.2165401 0.418098,0.2552679 1.533154,1.1094047 1.629689,1.2483477 0.05203,0.074889 -0.120005,0.9880216 -0.251116,1.332869 -0.0457,0.1201921 -0.115888,0.1982579 -0.15598,0.1734797 C 68.330449,9.34646 68.067562,8.9374327 67.786348,8.4622886 66.94422,7.0394121 66.934888,7.1484558 67.693236,9.550385 c 0.310017,0.981923 0.700148,2.247113 0.866957,2.811533 l 0.30329,1.026218 -0.600141,0.561499 c -0.536188,0.501664 -1.364412,1.181465 -1.585309,1.301212 -0.04515,0.02448 -0.176794,-0.01518 -0.292535,-0.08813 z"
           style="fill:#24d0fc;fill-opacity:1" />
        <path
           transform="scale(0.8,0.8)"
           inkscape:connector-curvature="0"
           id="path7391"
           d="m 66.094391,14.9632 c -0.689001,-0.509963 -1.628153,-1.288636 -1.660234,-1.376537 -0.03725,-0.10206 0.229756,-0.894399 0.378619,-1.123559 0.162682,-0.250433 0.248336,-0.168983 0.756941,0.719788 0.415367,0.725842 0.734595,1.120344 0.630589,0.779282 -0.02743,-0.08995 -0.349515,-1.124091 -0.715742,-2.298085 -0.767045,-2.458869 -0.982321,-3.2494637 -0.981599,-3.6048959 4.63e-4,-0.2280926 0.0977,-0.3261515 0.963862,-0.972037 0.529841,-0.395094 1.030186,-0.7183527 1.111878,-0.7183527 0.08169,0 0.266763,0.060931 0.41127,0.1354025 0.338446,0.1744176 1.764836,1.2612773 1.807312,1.3771092 0.03883,0.1058981 -0.13819,0.9795807 -0.264267,1.3042663 -0.04927,0.1268895 -0.126715,0.2077605 -0.172096,0.1797131 -0.04538,-0.028047 -0.283095,-0.390473 -0.528253,-0.8053903 -0.245157,-0.4149175 -0.505388,-0.828283 -0.57829,-0.9185902 -0.126658,-0.1568974 -0.130085,-0.1515274 -0.07711,0.120824 0.03049,0.1567603 0.347969,1.2096602 0.705507,2.339778 0.357537,1.130117 0.725704,2.327053 0.818147,2.659858 l 0.168079,0.605099 -0.397657,0.406112 c -0.414164,0.42297 -1.309215,1.175335 -1.679127,1.411447 -0.21015,0.134136 -0.223355,0.12995 -0.697828,-0.221232 z"
           style="fill:#24d0fc;fill-opacity:1" />
      </g>
    </g>
  </g>
</svg>
